<svg width="1073" height="807" xmlns="http://www.w3.org/2000/svg" xmlns:xlink="http://www.w3.org/1999/xlink" version="1.1" baseProfile="full" viewBox="0 0 1073 807">
<rect width="1073" height="807" x="0" y="0" id="0" fill="none" fill-opacity="1"></rect>
<path d="M214.6 605.25l804.75 0l0 -17.485l-804.75 0Z" fill="rgb(250,250,250)" fill-opacity="0.2"></path>
<path d="M214.6 587.765l804.75 0l0 -17.485l-804.75 0Z" fill="rgb(210,219,238)" fill-opacity="0.2"></path>
<path d="M214.6 570.28l804.75 0l0 -17.485l-804.75 0Z" fill="rgb(250,250,250)" fill-opacity="0.2"></path>
<path d="M214.6 552.795l804.75 0l0 -17.485l-804.75 0Z" fill="rgb(210,219,238)" fill-opacity="0.2"></path>
<path d="M214.6 535.31l804.75 0l0 -17.485l-804.75 0Z" fill="rgb(250,250,250)" fill-opacity="0.2"></path>
<path d="M214.6 517.825l804.75 0l0 -17.485l-804.75 0Z" fill="rgb(210,219,238)" fill-opacity="0.2"></path>
<path d="M214.6 500.34l804.75 0l0 -17.485l-804.75 0Z" fill="rgb(250,250,250)" fill-opacity="0.2"></path>
<path d="M214.6 482.855l804.75 0l0 -17.485l-804.75 0Z" fill="rgb(210,219,238)" fill-opacity="0.2"></path>
<path d="M214.6 465.37l804.75 0l0 -17.485l-804.75 0Z" fill="rgb(250,250,250)" fill-opacity="0.2"></path>
<path d="M214.6 447.885l804.75 0l0 -17.485l-804.75 0Z" fill="rgb(210,219,238)" fill-opacity="0.2"></path>
<path d="M214.6 430.4l804.75 0l0 -17.485l-804.75 0Z" fill="rgb(250,250,250)" fill-opacity="0.2"></path>
<path d="M214.6 412.915l804.75 0l0 -17.485l-804.75 0Z" fill="rgb(210,219,238)" fill-opacity="0.2"></path>
<path d="M214.6 395.43l804.75 0l0 -17.485l-804.75 0Z" fill="rgb(250,250,250)" fill-opacity="0.2"></path>
<path d="M214.6 377.945l804.75 0l0 -17.485l-804.75 0Z" fill="rgb(210,219,238)" fill-opacity="0.2"></path>
<path d="M214.6 360.46l804.75 0l0 -17.485l-804.75 0Z" fill="rgb(250,250,250)" fill-opacity="0.2"></path>
<path d="M214.6 342.975l804.75 0l0 -17.485l-804.75 0Z" fill="rgb(210,219,238)" fill-opacity="0.2"></path>
<path d="M214.6 325.49l804.75 0l0 -17.485l-804.75 0Z" fill="rgb(250,250,250)" fill-opacity="0.2"></path>
<path d="M214.6 308.005l804.75 0l0 -17.485l-804.75 0Z" fill="rgb(210,219,238)" fill-opacity="0.2"></path>
<path d="M214.6 290.52l804.75 0l0 -17.485l-804.75 0Z" fill="rgb(250,250,250)" fill-opacity="0.2"></path>
<path d="M214.6 273.035l804.75 0l0 -17.485l-804.75 0Z" fill="rgb(210,219,238)" fill-opacity="0.2"></path>
<path d="M214.6 255.55l804.75 0l0 -17.485l-804.75 0Z" fill="rgb(250,250,250)" fill-opacity="0.2"></path>
<path d="M214.6 238.065l804.75 0l0 -17.485l-804.75 0Z" fill="rgb(210,219,238)" fill-opacity="0.2"></path>
<path d="M214.6 220.58l804.75 0l0 -17.485l-804.75 0Z" fill="rgb(250,250,250)" fill-opacity="0.2"></path>
<path d="M214.6 203.095l804.75 0l0 -17.485l-804.75 0Z" fill="rgb(210,219,238)" fill-opacity="0.2"></path>
<path d="M214.6 185.61l804.75 0l0 -17.485l-804.75 0Z" fill="rgb(250,250,250)" fill-opacity="0.2"></path>
<path d="M214.6 168.125l804.75 0l0 -17.485l-804.75 0Z" fill="rgb(210,219,238)" fill-opacity="0.2"></path>
<path d="M214.6 150.64l804.75 0l0 -17.485l-804.75 0Z" fill="rgb(250,250,250)" fill-opacity="0.2"></path>
<path d="M214.6 133.155l804.75 0l0 -17.485l-804.75 0Z" fill="rgb(210,219,238)" fill-opacity="0.2"></path>
<path d="M214.6 115.67l804.75 0l0 -17.485l-804.75 0Z" fill="rgb(250,250,250)" fill-opacity="0.2"></path>
<path d="M214.6 98.185l804.75 0l0 -17.485l-804.75 0Z" fill="rgb(210,219,238)" fill-opacity="0.2"></path>
<path d="M214.6 80.7l26.825 0l0 524.55l-26.825 0Z" fill="rgb(250,250,250)" fill-opacity="0.2"></path>
<path d="M241.425 80.7l26.825 0l0 524.55l-26.825 0Z" fill="rgb(210,219,238)" fill-opacity="0.2"></path>
<path d="M268.25 80.7l26.825 0l0 524.55l-26.825 0Z" fill="rgb(250,250,250)" fill-opacity="0.2"></path>
<path d="M295.075 80.7l26.825 0l0 524.55l-26.825 0Z" fill="rgb(210,219,238)" fill-opacity="0.2"></path>
<path d="M321.9 80.7l26.825 0l0 524.55l-26.825 0Z" fill="rgb(250,250,250)" fill-opacity="0.2"></path>
<path d="M348.725 80.7l26.825 0l0 524.55l-26.825 0Z" fill="rgb(210,219,238)" fill-opacity="0.2"></path>
<path d="M375.55 80.7l26.825 0l0 524.55l-26.825 0Z" fill="rgb(250,250,250)" fill-opacity="0.2"></path>
<path d="M402.375 80.7l26.825 0l0 524.55l-26.825 0Z" fill="rgb(210,219,238)" fill-opacity="0.2"></path>
<path d="M429.2 80.7l26.825 0l0 524.55l-26.825 0Z" fill="rgb(250,250,250)" fill-opacity="0.2"></path>
<path d="M456.025 80.7l26.825 0l0 524.55l-26.825 0Z" fill="rgb(210,219,238)" fill-opacity="0.2"></path>
<path d="M482.85 80.7l26.825 0l0 524.55l-26.825 0Z" fill="rgb(250,250,250)" fill-opacity="0.2"></path>
<path d="M509.675 80.7l26.825 0l0 524.55l-26.825 0Z" fill="rgb(210,219,238)" fill-opacity="0.2"></path>
<path d="M536.5 80.7l26.825 0l0 524.55l-26.825 0Z" fill="rgb(250,250,250)" fill-opacity="0.2"></path>
<path d="M563.325 80.7l26.825 0l0 524.55l-26.825 0Z" fill="rgb(210,219,238)" fill-opacity="0.2"></path>
<path d="M590.15 80.7l26.825 0l0 524.55l-26.825 0Z" fill="rgb(250,250,250)" fill-opacity="0.2"></path>
<path d="M616.975 80.7l26.825 0l0 524.55l-26.825 0Z" fill="rgb(210,219,238)" fill-opacity="0.2"></path>
<path d="M643.8 80.7l26.825 0l0 524.55l-26.825 0Z" fill="rgb(250,250,250)" fill-opacity="0.2"></path>
<path d="M670.625 80.7l26.825 0l0 524.55l-26.825 0Z" fill="rgb(210,219,238)" fill-opacity="0.2"></path>
<path d="M697.45 80.7l26.825 0l0 524.55l-26.825 0Z" fill="rgb(250,250,250)" fill-opacity="0.2"></path>
<path d="M724.275 80.7l26.825 0l0 524.55l-26.825 0Z" fill="rgb(210,219,238)" fill-opacity="0.2"></path>
<path d="M751.1 80.7l26.825 0l0 524.55l-26.825 0Z" fill="rgb(250,250,250)" fill-opacity="0.2"></path>
<path d="M777.925 80.7l26.825 0l0 524.55l-26.825 0Z" fill="rgb(210,219,238)" fill-opacity="0.2"></path>
<path d="M804.75 80.7l26.825 0l0 524.55l-26.825 0Z" fill="rgb(250,250,250)" fill-opacity="0.2"></path>
<path d="M831.575 80.7l26.825 0l0 524.55l-26.825 0Z" fill="rgb(210,219,238)" fill-opacity="0.2"></path>
<path d="M858.4 80.7l26.825 0l0 524.55l-26.825 0Z" fill="rgb(250,250,250)" fill-opacity="0.2"></path>
<path d="M885.225 80.7l26.825 0l0 524.55l-26.825 0Z" fill="rgb(210,219,238)" fill-opacity="0.2"></path>
<path d="M912.05 80.7l26.825 0l0 524.55l-26.825 0Z" fill="rgb(250,250,250)" fill-opacity="0.2"></path>
<path d="M938.875 80.7l26.825 0l0 524.55l-26.825 0Z" fill="rgb(210,219,238)" fill-opacity="0.2"></path>
<path d="M965.7 80.7l26.825 0l0 524.55l-26.825 0Z" fill="rgb(250,250,250)" fill-opacity="0.2"></path>
<path d="M992.525 80.7l26.825 0l0 524.55l-26.825 0Z" fill="rgb(210,219,238)" fill-opacity="0.2"></path>
<path d="M214.5 605.25L214.5 80.7" fill="none" stroke="#6E7079" stroke-linecap="round"></path>
<path d="M214.6 605.5L1019.35 605.5" fill="none" stroke="#6E7079" stroke-linecap="round"></path>
<path d="M214.6 596.5L209.6 596.5" fill="none" stroke="#6E7079"></path>
<path d="M214.6 579.5L209.6 579.5" fill="none" stroke="#6E7079"></path>
<path d="M214.6 561.5L209.6 561.5" fill="none" stroke="#6E7079"></path>
<path d="M214.6 544.5L209.6 544.5" fill="none" stroke="#6E7079"></path>
<path d="M214.6 526.5L209.6 526.5" fill="none" stroke="#6E7079"></path>
<path d="M214.6 509.5L209.6 509.5" fill="none" stroke="#6E7079"></path>
<path d="M214.6 491.5L209.6 491.5" fill="none" stroke="#6E7079"></path>
<path d="M214.6 474.5L209.6 474.5" fill="none" stroke="#6E7079"></path>
<path d="M214.6 456.5L209.6 456.5" fill="none" stroke="#6E7079"></path>
<path d="M214.6 439.5L209.6 439.5" fill="none" stroke="#6E7079"></path>
<path d="M214.6 421.5L209.6 421.5" fill="none" stroke="#6E7079"></path>
<path d="M214.6 404.5L209.6 404.5" fill="none" stroke="#6E7079"></path>
<path d="M214.6 386.5L209.6 386.5" fill="none" stroke="#6E7079"></path>
<path d="M214.6 369.5L209.6 369.5" fill="none" stroke="#6E7079"></path>
<path d="M214.6 351.5L209.6 351.5" fill="none" stroke="#6E7079"></path>
<path d="M214.6 334.5L209.6 334.5" fill="none" stroke="#6E7079"></path>
<path d="M214.6 316.5L209.6 316.5" fill="none" stroke="#6E7079"></path>
<path d="M214.6 299.5L209.6 299.5" fill="none" stroke="#6E7079"></path>
<path d="M214.6 282.5L209.6 282.5" fill="none" stroke="#6E7079"></path>
<path d="M214.6 264.5L209.6 264.5" fill="none" stroke="#6E7079"></path>
<path d="M214.6 247.5L209.6 247.5" fill="none" stroke="#6E7079"></path>
<path d="M214.6 229.5L209.6 229.5" fill="none" stroke="#6E7079"></path>
<path d="M214.6 212.5L209.6 212.5" fill="none" stroke="#6E7079"></path>
<path d="M214.6 194.5L209.6 194.5" fill="none" stroke="#6E7079"></path>
<path d="M214.6 177.5L209.6 177.5" fill="none" stroke="#6E7079"></path>
<path d="M214.6 159.5L209.6 159.5" fill="none" stroke="#6E7079"></path>
<path d="M214.6 142.5L209.6 142.5" fill="none" stroke="#6E7079"></path>
<path d="M214.6 124.5L209.6 124.5" fill="none" stroke="#6E7079"></path>
<path d="M214.6 107.5L209.6 107.5" fill="none" stroke="#6E7079"></path>
<path d="M214.6 89.5L209.6 89.5" fill="none" stroke="#6E7079"></path>
<path d="M228.5 605.25L228.5 610.25" fill="none" stroke="#6E7079"></path>
<path d="M255.5 605.25L255.5 610.25" fill="none" stroke="#6E7079"></path>
<path d="M281.5 605.25L281.5 610.25" fill="none" stroke="#6E7079"></path>
<path d="M308.5 605.25L308.5 610.25" fill="none" stroke="#6E7079"></path>
<path d="M335.5 605.25L335.5 610.25" fill="none" stroke="#6E7079"></path>
<path d="M362.5 605.25L362.5 610.25" fill="none" stroke="#6E7079"></path>
<path d="M389.5 605.25L389.5 610.25" fill="none" stroke="#6E7079"></path>
<path d="M416.5 605.25L416.5 610.25" fill="none" stroke="#6E7079"></path>
<path d="M442.5 605.25L442.5 610.25" fill="none" stroke="#6E7079"></path>
<path d="M469.5 605.25L469.5 610.25" fill="none" stroke="#6E7079"></path>
<path d="M496.5 605.25L496.5 610.25" fill="none" stroke="#6E7079"></path>
<path d="M523.5 605.25L523.5 610.25" fill="none" stroke="#6E7079"></path>
<path d="M550.5 605.25L550.5 610.25" fill="none" stroke="#6E7079"></path>
<path d="M576.5 605.25L576.5 610.25" fill="none" stroke="#6E7079"></path>
<path d="M603.5 605.25L603.5 610.25" fill="none" stroke="#6E7079"></path>
<path d="M630.5 605.25L630.5 610.25" fill="none" stroke="#6E7079"></path>
<path d="M657.5 605.25L657.5 610.25" fill="none" stroke="#6E7079"></path>
<path d="M684.5 605.25L684.5 610.25" fill="none" stroke="#6E7079"></path>
<path d="M711.5 605.25L711.5 610.25" fill="none" stroke="#6E7079"></path>
<path d="M737.5 605.25L737.5 610.25" fill="none" stroke="#6E7079"></path>
<path d="M764.5 605.25L764.5 610.25" fill="none" stroke="#6E7079"></path>
<path d="M791.5 605.25L791.5 610.25" fill="none" stroke="#6E7079"></path>
<path d="M818.5 605.25L818.5 610.25" fill="none" stroke="#6E7079"></path>
<path d="M845.5 605.25L845.5 610.25" fill="none" stroke="#6E7079"></path>
<path d="M872.5 605.25L872.5 610.25" fill="none" stroke="#6E7079"></path>
<path d="M898.5 605.25L898.5 610.25" fill="none" stroke="#6E7079"></path>
<path d="M925.5 605.25L925.5 610.25" fill="none" stroke="#6E7079"></path>
<path d="M952.5 605.25L952.5 610.25" fill="none" stroke="#6E7079"></path>
<path d="M979.5 605.25L979.5 610.25" fill="none" stroke="#6E7079"></path>
<path d="M1006.5 605.25L1006.5 610.25" fill="none" stroke="#6E7079"></path>
<text dominant-baseline="central" text-anchor="end" style="font-size:12px;font-family:Microsoft YaHei;" transform="translate(206.6 596.5075)" fill="#6E7079">create_tables_load</text>
<text dominant-baseline="central" text-anchor="end" style="font-size:12px;font-family:Microsoft YaHei;" transform="translate(206.6 579.0225)" fill="#6E7079">create_tables_create</text>
<text dominant-baseline="central" text-anchor="end" style="font-size:12px;font-family:Microsoft YaHei;" transform="translate(206.6 561.5375)" fill="#6E7079">create_columns_extract</text>
<text dominant-baseline="central" text-anchor="end" style="font-size:12px;font-family:Microsoft YaHei;" transform="translate(206.6 544.0525)" fill="#6E7079">create_columns_mutate</text>
<text dominant-baseline="central" text-anchor="end" style="font-size:12px;font-family:Microsoft YaHei;" transform="translate(206.6 526.5675)" fill="#6E7079">create_columns_create</text>
<text dominant-baseline="central" text-anchor="end" style="font-size:12px;font-family:Microsoft YaHei;" transform="translate(206.6 509.0825)" fill="#6E7079">create_rows_create</text>
<text dominant-baseline="central" text-anchor="end" style="font-size:12px;font-family:Microsoft YaHei;" transform="translate(206.6 491.5975)" fill="#6E7079">create_rows_summarize</text>
<text dominant-baseline="central" text-anchor="end" style="font-size:12px;font-family:Microsoft YaHei;" transform="translate(206.6 474.1125)" fill="#6E7079">delete_columns_select_keep</text>
<text dominant-baseline="central" text-anchor="end" style="font-size:12px;font-family:Microsoft YaHei;" transform="translate(206.6 456.6275)" fill="#6E7079">delete_columns_select_remove</text>
<text dominant-baseline="central" text-anchor="end" style="font-size:12px;font-family:Microsoft YaHei;" transform="translate(206.6 439.1425)" fill="#6E7079">delete_rows_filter</text>
<text dominant-baseline="central" text-anchor="end" style="font-size:12px;font-family:Microsoft YaHei;" transform="translate(206.6 421.6575)" fill="#6E7079">delete_rows_deduplicate</text>
<text dominant-baseline="central" text-anchor="end" style="font-size:12px;font-family:Microsoft YaHei;" transform="translate(206.6 404.1725)" fill="#6E7079">delete_rows_slice_keep</text>
<text dominant-baseline="central" text-anchor="end" style="font-size:12px;font-family:Microsoft YaHei;" transform="translate(206.6 386.6875)" fill="#6E7079">delete_rows_dropna</text>
<text dominant-baseline="central" text-anchor="end" style="font-size:12px;font-family:Microsoft YaHei;" transform="translate(206.6 369.2025)" fill="#6E7079">transform_tables_sort</text>
<text dominant-baseline="central" text-anchor="end" style="font-size:12px;font-family:Microsoft YaHei;" transform="translate(206.6 351.7175)" fill="#6E7079">transform_tables_rearrange</text>
<text dominant-baseline="central" text-anchor="end" style="font-size:12px;font-family:Microsoft YaHei;" transform="translate(206.6 334.2325)" fill="#6E7079">transform_tables_fold</text>
<text dominant-baseline="central" text-anchor="end" style="font-size:12px;font-family:Microsoft YaHei;" transform="translate(206.6 316.7475)" fill="#6E7079">transform_tables_unfold</text>
<text dominant-baseline="central" text-anchor="end" style="font-size:12px;font-family:Microsoft YaHei;" transform="translate(206.6 299.2625)" fill="#6E7079">transform_columns_replace_na</text>
<text dominant-baseline="central" text-anchor="end" style="font-size:12px;font-family:Microsoft YaHei;" transform="translate(206.6 281.7775)" fill="#6E7079">transform_columns_replace</text>
<text dominant-baseline="central" text-anchor="end" style="font-size:12px;font-family:Microsoft YaHei;" transform="translate(206.6 264.2925)" fill="#6E7079">transform_columns_mutate</text>
<text dominant-baseline="central" text-anchor="end" style="font-size:12px;font-family:Microsoft YaHei;" transform="translate(206.6 246.8075)" fill="#6E7079">transform_columns_rename</text>
<text dominant-baseline="central" text-anchor="end" style="font-size:12px;font-family:Microsoft YaHei;" transform="translate(206.6 229.3225)" fill="#6E7079">transform_columns_extract</text>
<text dominant-baseline="central" text-anchor="end" style="font-size:12px;font-family:Microsoft YaHei;" transform="translate(206.6 211.8375)" fill="#6E7079">separate_columns</text>
<text dominant-baseline="central" text-anchor="end" style="font-size:12px;font-family:Microsoft YaHei;" transform="translate(206.6 194.3525)" fill="#6E7079">combine_tables_extend</text>
<text dominant-baseline="central" text-anchor="end" style="font-size:12px;font-family:Microsoft YaHei;" transform="translate(206.6 176.8675)" fill="#6E7079">combine_tables_extend_cols</text>
<text dominant-baseline="central" text-anchor="end" style="font-size:12px;font-family:Microsoft YaHei;" transform="translate(206.6 159.3825)" fill="#6E7079">combine_tables_left_join</text>
<text dominant-baseline="central" text-anchor="end" style="font-size:12px;font-family:Microsoft YaHei;" transform="translate(206.6 141.8975)" fill="#6E7079">combine_tables_inner_join</text>
<text dominant-baseline="central" text-anchor="end" style="font-size:12px;font-family:Microsoft YaHei;" transform="translate(206.6 124.4125)" fill="#6E7079">combine_columns_merge</text>
<text dominant-baseline="central" text-anchor="end" style="font-size:12px;font-family:Microsoft YaHei;" transform="translate(206.6 106.9275)" fill="#6E7079">combine_rows_summarize</text>
<text dominant-baseline="central" text-anchor="end" style="font-size:12px;font-family:Microsoft YaHei;" transform="translate(206.6 89.4425)" fill="#6E7079">identical_operation</text>
<text dominant-baseline="central" text-anchor="end" style="font-size:12px;font-family:Microsoft YaHei;" transform="matrix(0.707,-0.707,0.707,0.707,228.0125,613.25)" fill="#6E7079">create_tables_load</text>
<text dominant-baseline="central" text-anchor="end" style="font-size:12px;font-family:Microsoft YaHei;" transform="matrix(0.707,-0.707,0.707,0.707,254.8375,613.25)" fill="#6E7079">create_tables_create</text>
<text dominant-baseline="central" text-anchor="end" style="font-size:12px;font-family:Microsoft YaHei;" transform="matrix(0.707,-0.707,0.707,0.707,281.6625,613.25)" fill="#6E7079">create_columns_extract</text>
<text dominant-baseline="central" text-anchor="end" style="font-size:12px;font-family:Microsoft YaHei;" transform="matrix(0.707,-0.707,0.707,0.707,308.4875,613.25)" fill="#6E7079">create_columns_mutate</text>
<text dominant-baseline="central" text-anchor="end" style="font-size:12px;font-family:Microsoft YaHei;" transform="matrix(0.707,-0.707,0.707,0.707,335.3125,613.25)" fill="#6E7079">create_columns_create</text>
<text dominant-baseline="central" text-anchor="end" style="font-size:12px;font-family:Microsoft YaHei;" transform="matrix(0.707,-0.707,0.707,0.707,362.1375,613.25)" fill="#6E7079">create_rows_create</text>
<text dominant-baseline="central" text-anchor="end" style="font-size:12px;font-family:Microsoft YaHei;" transform="matrix(0.707,-0.707,0.707,0.707,388.9625,613.25)" fill="#6E7079">create_rows_summarize</text>
<text dominant-baseline="central" text-anchor="end" style="font-size:12px;font-family:Microsoft YaHei;" transform="matrix(0.707,-0.707,0.707,0.707,415.7875,613.25)" fill="#6E7079">delete_columns_select_keep</text>
<text dominant-baseline="central" text-anchor="end" style="font-size:12px;font-family:Microsoft YaHei;" transform="matrix(0.707,-0.707,0.707,0.707,442.6125,613.25)" fill="#6E7079">delete_columns_select_remove</text>
<text dominant-baseline="central" text-anchor="end" style="font-size:12px;font-family:Microsoft YaHei;" transform="matrix(0.707,-0.707,0.707,0.707,469.4375,613.25)" fill="#6E7079">delete_rows_filter</text>
<text dominant-baseline="central" text-anchor="end" style="font-size:12px;font-family:Microsoft YaHei;" transform="matrix(0.707,-0.707,0.707,0.707,496.2625,613.25)" fill="#6E7079">delete_rows_deduplicate</text>
<text dominant-baseline="central" text-anchor="end" style="font-size:12px;font-family:Microsoft YaHei;" transform="matrix(0.707,-0.707,0.707,0.707,523.0875,613.25)" fill="#6E7079">delete_rows_slice_keep</text>
<text dominant-baseline="central" text-anchor="end" style="font-size:12px;font-family:Microsoft YaHei;" transform="matrix(0.707,-0.707,0.707,0.707,549.9125,613.25)" fill="#6E7079">delete_rows_dropna</text>
<text dominant-baseline="central" text-anchor="end" style="font-size:12px;font-family:Microsoft YaHei;" transform="matrix(0.707,-0.707,0.707,0.707,576.7375,613.25)" fill="#6E7079">transform_tables_sort</text>
<text dominant-baseline="central" text-anchor="end" style="font-size:12px;font-family:Microsoft YaHei;" transform="matrix(0.707,-0.707,0.707,0.707,603.5625,613.25)" fill="#6E7079">transform_tables_rearrange</text>
<text dominant-baseline="central" text-anchor="end" style="font-size:12px;font-family:Microsoft YaHei;" transform="matrix(0.707,-0.707,0.707,0.707,630.3875,613.25)" fill="#6E7079">transform_tables_fold</text>
<text dominant-baseline="central" text-anchor="end" style="font-size:12px;font-family:Microsoft YaHei;" transform="matrix(0.707,-0.707,0.707,0.707,657.2125,613.25)" fill="#6E7079">transform_tables_unfold</text>
<text dominant-baseline="central" text-anchor="end" style="font-size:12px;font-family:Microsoft YaHei;" transform="matrix(0.707,-0.707,0.707,0.707,684.0375,613.25)" fill="#6E7079">transform_columns_replace_na</text>
<text dominant-baseline="central" text-anchor="end" style="font-size:12px;font-family:Microsoft YaHei;" transform="matrix(0.707,-0.707,0.707,0.707,710.8625,613.25)" fill="#6E7079">transform_columns_replace</text>
<text dominant-baseline="central" text-anchor="end" style="font-size:12px;font-family:Microsoft YaHei;" transform="matrix(0.707,-0.707,0.707,0.707,737.6875,613.25)" fill="#6E7079">transform_columns_mutate</text>
<text dominant-baseline="central" text-anchor="end" style="font-size:12px;font-family:Microsoft YaHei;" transform="matrix(0.707,-0.707,0.707,0.707,764.5125,613.25)" fill="#6E7079">transform_columns_rename</text>
<text dominant-baseline="central" text-anchor="end" style="font-size:12px;font-family:Microsoft YaHei;" transform="matrix(0.707,-0.707,0.707,0.707,791.3375,613.25)" fill="#6E7079">transform_columns_extract</text>
<text dominant-baseline="central" text-anchor="end" style="font-size:12px;font-family:Microsoft YaHei;" transform="matrix(0.707,-0.707,0.707,0.707,818.1625,613.25)" fill="#6E7079">separate_columns</text>
<text dominant-baseline="central" text-anchor="end" style="font-size:12px;font-family:Microsoft YaHei;" transform="matrix(0.707,-0.707,0.707,0.707,844.9875,613.25)" fill="#6E7079">combine_tables_extend</text>
<text dominant-baseline="central" text-anchor="end" style="font-size:12px;font-family:Microsoft YaHei;" transform="matrix(0.707,-0.707,0.707,0.707,871.8125,613.25)" fill="#6E7079">combine_tables_extend_cols</text>
<text dominant-baseline="central" text-anchor="end" style="font-size:12px;font-family:Microsoft YaHei;" transform="matrix(0.707,-0.707,0.707,0.707,898.6375,613.25)" fill="#6E7079">combine_tables_left_join</text>
<text dominant-baseline="central" text-anchor="end" style="font-size:12px;font-family:Microsoft YaHei;" transform="matrix(0.707,-0.707,0.707,0.707,925.4625,613.25)" fill="#6E7079">combine_tables_inner_join</text>
<text dominant-baseline="central" text-anchor="end" style="font-size:12px;font-family:Microsoft YaHei;" transform="matrix(0.707,-0.707,0.707,0.707,952.2875,613.25)" fill="#6E7079">combine_columns_merge</text>
<text dominant-baseline="central" text-anchor="end" style="font-size:12px;font-family:Microsoft YaHei;" transform="matrix(0.707,-0.707,0.707,0.707,979.1125,613.25)" fill="#6E7079">combine_rows_summarize</text>
<text dominant-baseline="central" text-anchor="end" style="font-size:12px;font-family:Microsoft YaHei;" transform="matrix(0.707,-0.707,0.707,0.707,1005.9375,613.25)" fill="#6E7079">identical_operation</text>
<path d="M214 588l27 0l0 18l-27 0Z" fill="rgb(191,68,76)"></path>
<path d="M241 570l27 0l0 18l-27 0Z" fill="rgb(191,68,76)"></path>
<path d="M268 553l27 0l0 18l-27 0Z" fill="rgb(216,130,115)"></path>
<path d="M294 553l27 0l0 18l-27 0Z" fill="rgb(216,130,115)"></path>
<path d="M294 535l27 0l0 18l-27 0Z" fill="rgb(194,75,81)"></path>
<path d="M321 535l27 0l0 18l-27 0Z" fill="rgb(242,226,160)"></path>
<path d="M321 518l27 0l0 18l-27 0Z" fill="rgb(198,85,87)"></path>
<path d="M294 518l27 0l0 18l-27 0Z" fill="rgb(238,208,152)"></path>
<path d="M348 500l27 0l0 18l-27 0Z" fill="rgb(191,68,76)"></path>
<path d="M321 483l27 0l0 18l-27 0Z" fill="rgb(191,68,76)"></path>
<path d="M402 465l27 0l0 18l-27 0Z" fill="rgb(191,68,76)"></path>
<path d="M429 448l27 0l0 18l-27 0Z" fill="rgb(191,68,76)"></path>
<path d="M455 430l27 0l0 18l-27 0Z" fill="rgb(191,68,76)"></path>
<path d="M482 413l27 0l0 18l-27 0Z" fill="rgb(204,99,96)"></path>
<path d="M643 413l27 0l0 18l-27 0Z" fill="rgb(231,185,141)"></path>
<path d="M455 395l27 0l0 18l-27 0Z" fill="rgb(216,130,115)"></path>
<path d="M536 395l27 0l0 18l-27 0Z" fill="rgb(216,130,115)"></path>
<path d="M536 378l27 0l0 18l-27 0Z" fill="rgb(216,130,115)"></path>
<path d="M455 378l27 0l0 18l-27 0Z" fill="rgb(216,130,115)"></path>
<path d="M563 360l27 0l0 18l-27 0Z" fill="rgb(191,68,76)"></path>
<path d="M590 343l27 0l0 18l-27 0Z" fill="rgb(191,68,76)"></path>
<path d="M616 325l27 0l0 18l-27 0Z" fill="rgb(191,68,76)"></path>
<path d="M643 308l27 0l0 18l-27 0Z" fill="rgb(191,68,76)"></path>
<path d="M670 290l27 0l0 18l-27 0Z" fill="rgb(191,68,76)"></path>
<path d="M697 273l27 0l0 18l-27 0Z" fill="rgb(200,89,89)"></path>
<path d="M992 273l27 0l0 18l-27 0Z" fill="rgb(236,202,149)"></path>
<path d="M724 255l27 0l0 18l-27 0Z" fill="rgb(198,84,86)"></path>
<path d="M697 255l27 0l0 18l-27 0Z" fill="rgb(238,211,153)"></path>
<path d="M751 238l27 0l0 18l-27 0Z" fill="rgb(191,68,76)"></path>
<path d="M992 220l27 0l0 18l-27 0Z" fill="rgb(216,130,115)"></path>
<path d="M724 220l27 0l0 18l-27 0Z" fill="rgb(216,130,115)"></path>
<path d="M804 203l27 0l0 18l-27 0Z" fill="rgb(191,68,76)"></path>
<path d="M831 185l27 0l0 18l-27 0Z" fill="rgb(191,68,76)"></path>
<path d="M858 168l27 0l0 18l-27 0Z" fill="rgb(191,68,76)"></path>
<path d="M885 150l27 0l0 18l-27 0Z" fill="rgb(200,89,89)"></path>
<path d="M911 150l27 0l0 18l-27 0Z" fill="rgb(236,202,149)"></path>
<path d="M911 133l27 0l0 18l-27 0Z" fill="rgb(216,130,115)"></path>
<path d="M885 133l27 0l0 18l-27 0Z" fill="rgb(216,130,115)"></path>
<path d="M938 115l27 0l0 18l-27 0Z" fill="rgb(191,68,76)"></path>
<path d="M965 98l27 0l0 18l-27 0Z" fill="rgb(191,68,76)"></path>
<path d="M992 80l27 0l0 18l-27 0Z" fill="rgb(191,68,76)"></path>
<text dominant-baseline="central" text-anchor="middle" style="font-size:12px;font-family:Microsoft YaHei;" transform="translate(227.5 597)" fill="#eee" stroke="rgb(191,68,76)" stroke-width="2" paint-order="stroke" stroke-miterlimit="2">1</text>
<text dominant-baseline="central" text-anchor="middle" style="font-size:12px;font-family:Microsoft YaHei;" transform="translate(254.5 579)" fill="#eee" stroke="rgb(191,68,76)" stroke-width="2" paint-order="stroke" stroke-miterlimit="2">1</text>
<text dominant-baseline="central" text-anchor="middle" style="font-size:12px;font-family:Microsoft YaHei;" transform="translate(281.5 562)" fill="#333">0.5</text>
<text dominant-baseline="central" text-anchor="middle" style="font-size:12px;font-family:Microsoft YaHei;" transform="translate(307.5 562)" fill="#333">0.5</text>
<text dominant-baseline="central" text-anchor="middle" style="font-size:12px;font-family:Microsoft YaHei;" transform="translate(307.5 544)" fill="#eee" stroke="rgb(194,75,81)" stroke-width="2" paint-order="stroke" stroke-miterlimit="2">0.94</text>
<text dominant-baseline="central" text-anchor="middle" style="font-size:12px;font-family:Microsoft YaHei;" transform="translate(334.5 544)" fill="#333">0.06</text>
<text dominant-baseline="central" text-anchor="middle" style="font-size:12px;font-family:Microsoft YaHei;" transform="translate(334.5 527)" fill="#eee" stroke="rgb(198,85,87)" stroke-width="2" paint-order="stroke" stroke-miterlimit="2">0.86</text>
<text dominant-baseline="central" text-anchor="middle" style="font-size:12px;font-family:Microsoft YaHei;" transform="translate(307.5 527)" fill="#333">0.14</text>
<text dominant-baseline="central" text-anchor="middle" style="font-size:12px;font-family:Microsoft YaHei;" transform="translate(361.5 509)" fill="#eee" stroke="rgb(191,68,76)" stroke-width="2" paint-order="stroke" stroke-miterlimit="2">1</text>
<text dominant-baseline="central" text-anchor="middle" style="font-size:12px;font-family:Microsoft YaHei;" transform="translate(334.5 492)" fill="#eee" stroke="rgb(191,68,76)" stroke-width="2" paint-order="stroke" stroke-miterlimit="2">1</text>
<text dominant-baseline="central" text-anchor="middle" style="font-size:12px;font-family:Microsoft YaHei;" transform="translate(415.5 474)" fill="#eee" stroke="rgb(191,68,76)" stroke-width="2" paint-order="stroke" stroke-miterlimit="2">1</text>
<text dominant-baseline="central" text-anchor="middle" style="font-size:12px;font-family:Microsoft YaHei;" transform="translate(442.5 457)" fill="#eee" stroke="rgb(191,68,76)" stroke-width="2" paint-order="stroke" stroke-miterlimit="2">1</text>
<text dominant-baseline="central" text-anchor="middle" style="font-size:12px;font-family:Microsoft YaHei;" transform="translate(468.5 439)" fill="#eee" stroke="rgb(191,68,76)" stroke-width="2" paint-order="stroke" stroke-miterlimit="2">1</text>
<text dominant-baseline="central" text-anchor="middle" style="font-size:12px;font-family:Microsoft YaHei;" transform="translate(495.5 422)" fill="#333">0.75</text>
<text dominant-baseline="central" text-anchor="middle" style="font-size:12px;font-family:Microsoft YaHei;" transform="translate(656.5 422)" fill="#333">0.25</text>
<text dominant-baseline="central" text-anchor="middle" style="font-size:12px;font-family:Microsoft YaHei;" transform="translate(468.5 404)" fill="#333">0.5</text>
<text dominant-baseline="central" text-anchor="middle" style="font-size:12px;font-family:Microsoft YaHei;" transform="translate(549.5 404)" fill="#333">0.5</text>
<text dominant-baseline="central" text-anchor="middle" style="font-size:12px;font-family:Microsoft YaHei;" transform="translate(549.5 387)" fill="#333">0.5</text>
<text dominant-baseline="central" text-anchor="middle" style="font-size:12px;font-family:Microsoft YaHei;" transform="translate(468.5 387)" fill="#333">0.5</text>
<text dominant-baseline="central" text-anchor="middle" style="font-size:12px;font-family:Microsoft YaHei;" transform="translate(576.5 369)" fill="#eee" stroke="rgb(191,68,76)" stroke-width="2" paint-order="stroke" stroke-miterlimit="2">1</text>
<text dominant-baseline="central" text-anchor="middle" style="font-size:12px;font-family:Microsoft YaHei;" transform="translate(603.5 352)" fill="#eee" stroke="rgb(191,68,76)" stroke-width="2" paint-order="stroke" stroke-miterlimit="2">1</text>
<text dominant-baseline="central" text-anchor="middle" style="font-size:12px;font-family:Microsoft YaHei;" transform="translate(629.5 334)" fill="#eee" stroke="rgb(191,68,76)" stroke-width="2" paint-order="stroke" stroke-miterlimit="2">1</text>
<text dominant-baseline="central" text-anchor="middle" style="font-size:12px;font-family:Microsoft YaHei;" transform="translate(656.5 317)" fill="#eee" stroke="rgb(191,68,76)" stroke-width="2" paint-order="stroke" stroke-miterlimit="2">1</text>
<text dominant-baseline="central" text-anchor="middle" style="font-size:12px;font-family:Microsoft YaHei;" transform="translate(683.5 299)" fill="#eee" stroke="rgb(191,68,76)" stroke-width="2" paint-order="stroke" stroke-miterlimit="2">1</text>
<text dominant-baseline="central" text-anchor="middle" style="font-size:12px;font-family:Microsoft YaHei;" transform="translate(710.5 282)" fill="#eee" stroke="rgb(200,89,89)" stroke-width="2" paint-order="stroke" stroke-miterlimit="2">0.83</text>
<text dominant-baseline="central" text-anchor="middle" style="font-size:12px;font-family:Microsoft YaHei;" transform="translate(1005.5 282)" fill="#333">0.17</text>
<text dominant-baseline="central" text-anchor="middle" style="font-size:12px;font-family:Microsoft YaHei;" transform="translate(737.5 264)" fill="#eee" stroke="rgb(198,84,86)" stroke-width="2" paint-order="stroke" stroke-miterlimit="2">0.87</text>
<text dominant-baseline="central" text-anchor="middle" style="font-size:12px;font-family:Microsoft YaHei;" transform="translate(710.5 264)" fill="#333">0.13</text>
<text dominant-baseline="central" text-anchor="middle" style="font-size:12px;font-family:Microsoft YaHei;" transform="translate(764.5 247)" fill="#eee" stroke="rgb(191,68,76)" stroke-width="2" paint-order="stroke" stroke-miterlimit="2">1</text>
<text dominant-baseline="central" text-anchor="middle" style="font-size:12px;font-family:Microsoft YaHei;" transform="translate(1005.5 229)" fill="#333">0.5</text>
<text dominant-baseline="central" text-anchor="middle" style="font-size:12px;font-family:Microsoft YaHei;" transform="translate(737.5 229)" fill="#333">0.5</text>
<text dominant-baseline="central" text-anchor="middle" style="font-size:12px;font-family:Microsoft YaHei;" transform="translate(817.5 212)" fill="#eee" stroke="rgb(191,68,76)" stroke-width="2" paint-order="stroke" stroke-miterlimit="2">1</text>
<text dominant-baseline="central" text-anchor="middle" style="font-size:12px;font-family:Microsoft YaHei;" transform="translate(844.5 194)" fill="#eee" stroke="rgb(191,68,76)" stroke-width="2" paint-order="stroke" stroke-miterlimit="2">1</text>
<text dominant-baseline="central" text-anchor="middle" style="font-size:12px;font-family:Microsoft YaHei;" transform="translate(871.5 177)" fill="#eee" stroke="rgb(191,68,76)" stroke-width="2" paint-order="stroke" stroke-miterlimit="2">1</text>
<text dominant-baseline="central" text-anchor="middle" style="font-size:12px;font-family:Microsoft YaHei;" transform="translate(898.5 159)" fill="#eee" stroke="rgb(200,89,89)" stroke-width="2" paint-order="stroke" stroke-miterlimit="2">0.83</text>
<text dominant-baseline="central" text-anchor="middle" style="font-size:12px;font-family:Microsoft YaHei;" transform="translate(924.5 159)" fill="#333">0.17</text>
<text dominant-baseline="central" text-anchor="middle" style="font-size:12px;font-family:Microsoft YaHei;" transform="translate(924.5 142)" fill="#333">0.5</text>
<text dominant-baseline="central" text-anchor="middle" style="font-size:12px;font-family:Microsoft YaHei;" transform="translate(898.5 142)" fill="#333">0.5</text>
<text dominant-baseline="central" text-anchor="middle" style="font-size:12px;font-family:Microsoft YaHei;" transform="translate(951.5 124)" fill="#eee" stroke="rgb(191,68,76)" stroke-width="2" paint-order="stroke" stroke-miterlimit="2">1</text>
<text dominant-baseline="central" text-anchor="middle" style="font-size:12px;font-family:Microsoft YaHei;" transform="translate(978.5 107)" fill="#eee" stroke="rgb(191,68,76)" stroke-width="2" paint-order="stroke" stroke-miterlimit="2">1</text>
<text dominant-baseline="central" text-anchor="middle" style="font-size:12px;font-family:Microsoft YaHei;" transform="translate(1005.5 89)" fill="#eee" stroke="rgb(191,68,76)" stroke-width="2" paint-order="stroke" stroke-miterlimit="2">1</text>
<path d="M-8.8966 -45l157.7931 0l0 53l-157.7931 0Z" transform="translate(466.5 799)" fill="rgb(0,0,0)" fill-opacity="0" stroke="#ccc" stroke-width="0"></path>
<text dominant-baseline="central" text-anchor="middle" style="font: normal normal 12px Microsoft YaHei" x="2.0818995585505003e-15" y="-34" transform="translate(466.5 799)" fill="#333">0</text>
<text dominant-baseline="central" text-anchor="middle" style="font: normal normal 12px Microsoft YaHei" x="140" y="-33.99999999999999" transform="translate(466.5 799)" fill="#333">1</text>
<g clip-path="url(#zr1-c0)">
<polygon points="0 0 20 0 20 140 0 140" transform="matrix(0,-1,1,0,466.5,799)" fill="url(#zr1-g0)"></polygon>
<polygon points="0 0 20 0 20 140 0 140" transform="matrix(0,-1,1,0,466.5,799)" fill="url(#zr1-g1)"></polygon>
</g>
<path d="M12 0A2.8966 2.8966 0 0 1 9.1034 2.8966L-9.1034 2.8966A2.8966 2.8966 0 0 1 -12 0L-12 0A2.8966 2.8966 0 0 1 -9.1034 -2.8966L9.1034 -2.8966A2.8966 2.8966 0 0 1 12 0Z" transform="matrix(0,-1,1,0,466.5,789)" fill="rgb(246,239,166)" stroke="#fff" stroke-width="2" paint-order="stroke"></path>
<path d="M12 0A2.8966 2.8966 0 0 1 9.1034 2.8966L-9.1034 2.8966A2.8966 2.8966 0 0 1 -12 0L-12 0A2.8966 2.8966 0 0 1 -9.1034 -2.8966L9.1034 -2.8966A2.8966 2.8966 0 0 1 12 0Z" transform="matrix(0,-1,1,0,606.5,789)" fill="rgb(191,68,76)" stroke="#fff" stroke-width="2" paint-order="stroke"></path>
<defs >
<clipPath id="zr1-c0">
<path d="M3 0L17 0A3 3 0 0 1 20 3L20 137A3 3 0 0 1 17 140L3 140A3 3 0 0 1 0 137L0 3A3 3 0 0 1 3 0" transform="matrix(0,-1,1,0,466.5,799)" fill="#000"></path>
</clipPath>
<linearGradient gradientUnits="objectBoundingBox" x1="0" y1="0" x2="0" y2="1" id="zr1-g0">
<stop offset="0%" stop-color="rgb(170,170,170)"></stop>
<stop offset="1%" stop-color="rgb(170,170,170)"></stop>
<stop offset="2%" stop-color="rgb(170,170,170)"></stop>
<stop offset="3%" stop-color="rgb(170,170,170)"></stop>
<stop offset="4%" stop-color="rgb(170,170,170)"></stop>
<stop offset="5%" stop-color="rgb(170,170,170)"></stop>
<stop offset="6%" stop-color="rgb(170,170,170)"></stop>
<stop offset="7.000000000000001%" stop-color="rgb(170,170,170)"></stop>
<stop offset="8%" stop-color="rgb(170,170,170)"></stop>
<stop offset="9%" stop-color="rgb(170,170,170)"></stop>
<stop offset="10%" stop-color="rgb(170,170,170)"></stop>
<stop offset="11%" stop-color="rgb(170,170,170)"></stop>
<stop offset="12%" stop-color="rgb(170,170,170)"></stop>
<stop offset="13%" stop-color="rgb(170,170,170)"></stop>
<stop offset="14.000000000000002%" stop-color="rgb(170,170,170)"></stop>
<stop offset="15%" stop-color="rgb(170,170,170)"></stop>
<stop offset="16%" stop-color="rgb(170,170,170)"></stop>
<stop offset="17%" stop-color="rgb(170,170,170)"></stop>
<stop offset="18%" stop-color="rgb(170,170,170)"></stop>
<stop offset="19%" stop-color="rgb(170,170,170)"></stop>
<stop offset="20%" stop-color="rgb(170,170,170)"></stop>
<stop offset="21%" stop-color="rgb(170,170,170)"></stop>
<stop offset="22%" stop-color="rgb(170,170,170)"></stop>
<stop offset="23%" stop-color="rgb(170,170,170)"></stop>
<stop offset="24%" stop-color="rgb(170,170,170)"></stop>
<stop offset="25%" stop-color="rgb(170,170,170)"></stop>
<stop offset="26%" stop-color="rgb(170,170,170)"></stop>
<stop offset="27%" stop-color="rgb(170,170,170)"></stop>
<stop offset="28.000000000000004%" stop-color="rgb(170,170,170)"></stop>
<stop offset="28.999999999999996%" stop-color="rgb(170,170,170)"></stop>
<stop offset="30%" stop-color="rgb(170,170,170)"></stop>
<stop offset="31%" stop-color="rgb(170,170,170)"></stop>
<stop offset="32%" stop-color="rgb(170,170,170)"></stop>
<stop offset="33%" stop-color="rgb(170,170,170)"></stop>
<stop offset="34%" stop-color="rgb(170,170,170)"></stop>
<stop offset="35%" stop-color="rgb(170,170,170)"></stop>
<stop offset="36%" stop-color="rgb(170,170,170)"></stop>
<stop offset="37%" stop-color="rgb(170,170,170)"></stop>
<stop offset="38%" stop-color="rgb(170,170,170)"></stop>
<stop offset="39%" stop-color="rgb(170,170,170)"></stop>
<stop offset="40%" stop-color="rgb(170,170,170)"></stop>
<stop offset="41%" stop-color="rgb(170,170,170)"></stop>
<stop offset="42%" stop-color="rgb(170,170,170)"></stop>
<stop offset="43%" stop-color="rgb(170,170,170)"></stop>
<stop offset="44%" stop-color="rgb(170,170,170)"></stop>
<stop offset="45%" stop-color="rgb(170,170,170)"></stop>
<stop offset="46%" stop-color="rgb(170,170,170)"></stop>
<stop offset="47%" stop-color="rgb(170,170,170)"></stop>
<stop offset="48%" stop-color="rgb(170,170,170)"></stop>
<stop offset="49%" stop-color="rgb(170,170,170)"></stop>
<stop offset="50%" stop-color="rgb(170,170,170)"></stop>
<stop offset="51%" stop-color="rgb(170,170,170)"></stop>
<stop offset="52%" stop-color="rgb(170,170,170)"></stop>
<stop offset="53%" stop-color="rgb(170,170,170)"></stop>
<stop offset="54%" stop-color="rgb(170,170,170)"></stop>
<stop offset="55.00000000000001%" stop-color="rgb(170,170,170)"></stop>
<stop offset="56.00000000000001%" stop-color="rgb(170,170,170)"></stop>
<stop offset="56.99999999999999%" stop-color="rgb(170,170,170)"></stop>
<stop offset="57.99999999999999%" stop-color="rgb(170,170,170)"></stop>
<stop offset="59%" stop-color="rgb(170,170,170)"></stop>
<stop offset="60%" stop-color="rgb(170,170,170)"></stop>
<stop offset="61%" stop-color="rgb(170,170,170)"></stop>
<stop offset="62%" stop-color="rgb(170,170,170)"></stop>
<stop offset="63%" stop-color="rgb(170,170,170)"></stop>
<stop offset="64%" stop-color="rgb(170,170,170)"></stop>
<stop offset="65%" stop-color="rgb(170,170,170)"></stop>
<stop offset="66%" stop-color="rgb(170,170,170)"></stop>
<stop offset="67%" stop-color="rgb(170,170,170)"></stop>
<stop offset="68%" stop-color="rgb(170,170,170)"></stop>
<stop offset="69%" stop-color="rgb(170,170,170)"></stop>
<stop offset="70%" stop-color="rgb(170,170,170)"></stop>
<stop offset="71%" stop-color="rgb(170,170,170)"></stop>
<stop offset="72%" stop-color="rgb(170,170,170)"></stop>
<stop offset="73%" stop-color="rgb(170,170,170)"></stop>
<stop offset="74%" stop-color="rgb(170,170,170)"></stop>
<stop offset="75%" stop-color="rgb(170,170,170)"></stop>
<stop offset="76%" stop-color="rgb(170,170,170)"></stop>
<stop offset="77%" stop-color="rgb(170,170,170)"></stop>
<stop offset="78%" stop-color="rgb(170,170,170)"></stop>
<stop offset="79%" stop-color="rgb(170,170,170)"></stop>
<stop offset="80%" stop-color="rgb(170,170,170)"></stop>
<stop offset="81%" stop-color="rgb(170,170,170)"></stop>
<stop offset="82%" stop-color="rgb(170,170,170)"></stop>
<stop offset="83%" stop-color="rgb(170,170,170)"></stop>
<stop offset="84%" stop-color="rgb(170,170,170)"></stop>
<stop offset="85%" stop-color="rgb(170,170,170)"></stop>
<stop offset="86%" stop-color="rgb(170,170,170)"></stop>
<stop offset="87%" stop-color="rgb(170,170,170)"></stop>
<stop offset="88%" stop-color="rgb(170,170,170)"></stop>
<stop offset="89%" stop-color="rgb(170,170,170)"></stop>
<stop offset="90%" stop-color="rgb(170,170,170)"></stop>
<stop offset="91%" stop-color="rgb(170,170,170)"></stop>
<stop offset="92%" stop-color="rgb(170,170,170)"></stop>
<stop offset="93%" stop-color="rgb(170,170,170)"></stop>
<stop offset="94%" stop-color="rgb(170,170,170)"></stop>
<stop offset="95%" stop-color="rgb(170,170,170)"></stop>
<stop offset="96%" stop-color="rgb(170,170,170)"></stop>
<stop offset="97%" stop-color="rgb(170,170,170)"></stop>
<stop offset="98%" stop-color="rgb(170,170,170)"></stop>
<stop offset="99%" stop-color="rgb(170,170,170)"></stop>
<stop offset="100%" stop-color="rgb(170,170,170)"></stop>
</linearGradient>
<linearGradient gradientUnits="objectBoundingBox" x1="0" y1="0" x2="0" y2="1" id="zr1-g1">
<stop offset="0%" stop-color="rgb(246,239,166)"></stop>
<stop offset="1%" stop-color="rgb(245,237,165)"></stop>
<stop offset="2%" stop-color="rgb(245,235,164)"></stop>
<stop offset="3%" stop-color="rgb(244,232,163)"></stop>
<stop offset="4%" stop-color="rgb(244,230,162)"></stop>
<stop offset="5%" stop-color="rgb(243,228,161)"></stop>
<stop offset="6%" stop-color="rgb(242,226,160)"></stop>
<stop offset="7.000000000000001%" stop-color="rgb(242,224,159)"></stop>
<stop offset="8%" stop-color="rgb(241,222,158)"></stop>
<stop offset="9%" stop-color="rgb(241,219,157)"></stop>
<stop offset="10%" stop-color="rgb(240,217,156)"></stop>
<stop offset="11%" stop-color="rgb(239,215,155)"></stop>
<stop offset="12%" stop-color="rgb(239,213,154)"></stop>
<stop offset="13%" stop-color="rgb(238,211,153)"></stop>
<stop offset="14.000000000000002%" stop-color="rgb(238,208,152)"></stop>
<stop offset="15%" stop-color="rgb(237,206,151)"></stop>
<stop offset="16%" stop-color="rgb(236,204,150)"></stop>
<stop offset="17%" stop-color="rgb(236,202,149)"></stop>
<stop offset="18%" stop-color="rgb(235,200,148)"></stop>
<stop offset="19%" stop-color="rgb(235,198,147)"></stop>
<stop offset="20%" stop-color="rgb(234,195,146)"></stop>
<stop offset="21%" stop-color="rgb(233,193,145)"></stop>
<stop offset="22%" stop-color="rgb(233,191,144)"></stop>
<stop offset="23%" stop-color="rgb(232,189,143)"></stop>
<stop offset="24%" stop-color="rgb(232,187,142)"></stop>
<stop offset="25%" stop-color="rgb(231,185,141)"></stop>
<stop offset="26%" stop-color="rgb(230,182,139)"></stop>
<stop offset="27%" stop-color="rgb(230,180,138)"></stop>
<stop offset="28.000000000000004%" stop-color="rgb(229,178,137)"></stop>
<stop offset="28.999999999999996%" stop-color="rgb(229,176,136)"></stop>
<stop offset="30%" stop-color="rgb(228,174,135)"></stop>
<stop offset="31%" stop-color="rgb(227,171,134)"></stop>
<stop offset="32%" stop-color="rgb(227,169,133)"></stop>
<stop offset="33%" stop-color="rgb(226,167,132)"></stop>
<stop offset="34%" stop-color="rgb(226,165,131)"></stop>
<stop offset="35%" stop-color="rgb(225,163,130)"></stop>
<stop offset="36%" stop-color="rgb(224,161,129)"></stop>
<stop offset="37%" stop-color="rgb(224,158,128)"></stop>
<stop offset="38%" stop-color="rgb(223,156,127)"></stop>
<stop offset="39%" stop-color="rgb(223,154,126)"></stop>
<stop offset="40%" stop-color="rgb(222,152,125)"></stop>
<stop offset="41%" stop-color="rgb(221,150,124)"></stop>
<stop offset="42%" stop-color="rgb(221,147,123)"></stop>
<stop offset="43%" stop-color="rgb(220,145,122)"></stop>
<stop offset="44%" stop-color="rgb(220,143,121)"></stop>
<stop offset="45%" stop-color="rgb(219,141,120)"></stop>
<stop offset="46%" stop-color="rgb(218,139,119)"></stop>
<stop offset="47%" stop-color="rgb(218,137,118)"></stop>
<stop offset="48%" stop-color="rgb(217,134,117)"></stop>
<stop offset="49%" stop-color="rgb(217,132,116)"></stop>
<stop offset="50%" stop-color="rgb(216,130,115)"></stop>
<stop offset="51%" stop-color="rgb(216,129,114)"></stop>
<stop offset="52%" stop-color="rgb(215,128,113)"></stop>
<stop offset="53%" stop-color="rgb(215,126,113)"></stop>
<stop offset="54%" stop-color="rgb(214,125,112)"></stop>
<stop offset="55.00000000000001%" stop-color="rgb(214,124,111)"></stop>
<stop offset="56.00000000000001%" stop-color="rgb(213,123,110)"></stop>
<stop offset="56.99999999999999%" stop-color="rgb(213,121,110)"></stop>
<stop offset="57.99999999999999%" stop-color="rgb(212,120,109)"></stop>
<stop offset="59%" stop-color="rgb(212,119,108)"></stop>
<stop offset="60%" stop-color="rgb(211,118,107)"></stop>
<stop offset="61%" stop-color="rgb(211,116,106)"></stop>
<stop offset="62%" stop-color="rgb(210,115,106)"></stop>
<stop offset="63%" stop-color="rgb(210,114,105)"></stop>
<stop offset="64%" stop-color="rgb(209,113,104)"></stop>
<stop offset="65%" stop-color="rgb(209,111,103)"></stop>
<stop offset="66%" stop-color="rgb(208,110,103)"></stop>
<stop offset="67%" stop-color="rgb(208,109,102)"></stop>
<stop offset="68%" stop-color="rgb(207,108,101)"></stop>
<stop offset="69%" stop-color="rgb(207,106,100)"></stop>
<stop offset="70%" stop-color="rgb(206,105,99)"></stop>
<stop offset="71%" stop-color="rgb(206,104,99)"></stop>
<stop offset="72%" stop-color="rgb(205,103,98)"></stop>
<stop offset="73%" stop-color="rgb(205,101,97)"></stop>
<stop offset="74%" stop-color="rgb(204,100,96)"></stop>
<stop offset="75%" stop-color="rgb(204,99,96)"></stop>
<stop offset="76%" stop-color="rgb(203,98,95)"></stop>
<stop offset="77%" stop-color="rgb(203,97,94)"></stop>
<stop offset="78%" stop-color="rgb(202,95,93)"></stop>
<stop offset="79%" stop-color="rgb(202,94,92)"></stop>
<stop offset="80%" stop-color="rgb(201,93,92)"></stop>
<stop offset="81%" stop-color="rgb(201,92,91)"></stop>
<stop offset="82%" stop-color="rgb(200,90,90)"></stop>
<stop offset="83%" stop-color="rgb(200,89,89)"></stop>
<stop offset="84%" stop-color="rgb(199,88,88)"></stop>
<stop offset="85%" stop-color="rgb(199,87,88)"></stop>
<stop offset="86%" stop-color="rgb(198,85,87)"></stop>
<stop offset="87%" stop-color="rgb(198,84,86)"></stop>
<stop offset="88%" stop-color="rgb(197,83,85)"></stop>
<stop offset="89%" stop-color="rgb(197,82,85)"></stop>
<stop offset="90%" stop-color="rgb(196,80,84)"></stop>
<stop offset="91%" stop-color="rgb(196,79,83)"></stop>
<stop offset="92%" stop-color="rgb(195,78,82)"></stop>
<stop offset="93%" stop-color="rgb(195,77,81)"></stop>
<stop offset="94%" stop-color="rgb(194,75,81)"></stop>
<stop offset="95%" stop-color="rgb(194,74,80)"></stop>
<stop offset="96%" stop-color="rgb(193,73,79)"></stop>
<stop offset="97%" stop-color="rgb(193,72,78)"></stop>
<stop offset="98%" stop-color="rgb(192,70,78)"></stop>
<stop offset="99%" stop-color="rgb(192,69,77)"></stop>
<stop offset="100%" stop-color="rgb(191,68,76)"></stop>
</linearGradient>
</defs>
</svg>